<svg xmlns="http://www.w3.org/2000/svg" viewBox="0 0 64 64"><g id="Layer_45" data-name="Layer 45"><path d="M37.86,27.64H48.74a1.5,1.5,0,0,0,0-3H41.48L53.06,13.06a1.5,1.5,0,0,0-2.12-2.12L39.36,22.52V15.26a1.5,1.5,0,0,0-3,0V26.14A1.5,1.5,0,0,0,37.86,27.64Z"/><path d="M26.14,13.76a1.5,1.5,0,0,0-1.5,1.5v7.26L13.06,10.94a1.5,1.5,0,0,0-2.12,2.12L22.52,24.64H15.26a1.5,1.5,0,0,0,0,3H26.14a1.5,1.5,0,0,0,1.5-1.5V15.26A1.5,1.5,0,0,0,26.14,13.76Z"/><path d="M26.14,36.36H15.26a1.5,1.5,0,1,0,0,3h7.26L10.94,50.94a1.5,1.5,0,0,0,2.12,2.12L24.64,41.48v7.26a1.5,1.5,0,0,0,3,0V37.86A1.5,1.5,0,0,0,26.14,36.36Z"/><path d="M41.48,39.36h7.26a1.5,1.5,0,0,0,0-3H37.86a1.5,1.5,0,0,0-1.5,1.5V48.74a1.5,1.5,0,0,0,3,0V41.48L50.94,53.06a1.5,1.5,0,0,0,2.12-2.12Z" fill="#c5c5c5"/></g></svg>