<svg xmlns="http://www.w3.org/2000/svg" viewBox="0 0 64 64"><g id="Layer_45" data-name="Layer 45"><path d="M37.86,27.64H48.74a1.5,1.5,0,0,0,1.39-2c.09-.28-4.52-4.63-4.71-4.9l7.64-7.64a1.5,1.5,0,0,0-2.12-2.12L43.3,18.58,38.92,14.2a1.51,1.51,0,0,0-2.56,1.06V26.14A1.5,1.5,0,0,0,37.86,27.64Z"/><path d="M26.14,36.36H15.26a1.51,1.51,0,0,0-1.39,2c-.09.28,4.52,4.63,4.71,4.9l-7.64,7.64a1.5,1.5,0,0,0,2.12,2.12l7.64-7.64,4.38,4.38a1.51,1.51,0,0,0,2.56-1.06V37.86A1.5,1.5,0,0,0,26.14,36.36Z"/><path d="M45.42,43.3c.19-.27,4.8-4.62,4.71-4.9a1.51,1.51,0,0,0-1.39-2H37.86a1.5,1.5,0,0,0-1.5,1.5V48.74a1.5,1.5,0,0,0,2,1.39c.25.12,4.65-4.54,4.9-4.71l7.64,7.64a1.5,1.5,0,0,0,2.12-2.12Z"/><path d="M27.53,14.69a1.52,1.52,0,0,0-2.45-.49L20.7,18.58l-7.64-7.64a1.5,1.5,0,0,0-2.12,2.12l7.64,7.64-4.37,4.38a1.51,1.51,0,0,0,1,2.56H26.14a1.5,1.5,0,0,0,1.5-1.5V15.26A1.56,1.56,0,0,0,27.53,14.69Z"/></g></svg>