<?xml version="1.0" encoding="utf-8"?>
<svg viewBox="-0.088 -0.215 500 500" xmlns="http://www.w3.org/2000/svg">
  <path d="M 67.002 117.292 C 80.576 103.698 96.451 91.424 113.519 81.527 C 150.404 60.422 190.533 50.848 228.462 51.384 C 266.433 52.188 304.182 63.067 336.408 81.539 C 368.521 100.214 396.811 127.473 416.49 159.956 C 435.92 192.525 447.845 232.056 447.845 274.565 C 447.845 294.301 445.114 314.177 440.127 332.726 C 435.084 351.268 427.515 369.497 417.983 386.012 C 408.451 402.527 396.434 418.201 382.902 431.84 C 369.326 445.43 353.457 457.706 336.387 467.602 C 299.502 488.709 259.372 498.282 221.443 497.746 C 183.475 496.942 145.72 486.093 113.502 467.593 C 81.371 448.941 53.093 421.657 33.416 389.174 C 13.984 356.605 2.06 317.075 2.06 274.565 C 2.06 269.972 2.21 265.302 2.492 260.728 C 2.861 259.164 3.04 257.454 3.331 255.973 C 6.052 254.346 9.131 251.56 11.027 250.551 L 12.047 250.92 L 13.244 251.353 C 16.677 252.609 22.305 254.067 26.237 254.298 L 28.136 254.433 C 28.568 254.732 28.984 255.054 29.38 255.4 C 31.119 256.923 32.367 259.813 33.584 262.342 L 33.566 262.651 C 33.332 266.618 33.218 270.513 33.218 274.565 C 33.218 291.866 35.43 308.334 39.856 324.597 C 44.222 340.869 50.523 355.964 58.907 370.435 C 67.251 384.933 77.174 397.941 89.084 409.856 C 100.954 421.824 114.103 432.004 129.097 440.619 C 161.301 459.404 194.616 467.259 227.945 466.567 C 261.224 466.108 292.602 457.038 320.83 440.606 C 349.176 424.374 372.723 401.734 389.749 373.138 C 407.022 344.634 416.686 311.86 416.686 274.565 C 416.686 257.263 414.479 240.791 410.047 224.531 C 405.686 208.263 399.363 193.187 390.999 178.698 C 382.635 164.209 372.729 151.189 360.821 139.275 C 348.95 127.307 335.803 117.126 320.807 108.51 C 288.605 89.727 255.288 81.872 221.959 82.563 C 188.68 83.022 157.304 92.092 129.075 108.524 C 100.729 124.756 77.19 147.382 60.165 175.979 C 60.024 176.215 59.884 176.449 59.745 176.683 C 57.122 177.513 53.292 179.216 49.088 181.137 C 45.037 178.424 39.726 175.197 34.971 172.57 C 34.732 170.603 34.257 168.467 33.75 166.34 C 33.454 165.097 33.016 163.668 32.489 162.146 C 41.955 146.009 53.729 130.665 67.002 117.292 Z" style="paint-order: stroke markers; fill-rule: evenodd; fill: rgb(255, 115, 0); stroke-linejoin: round; stroke-linecap: round;" transform="matrix(-0.422596, 0.906318, -0.906318, -0.422596, 568.859802, 186.716553)"/>
  <path d="M 356.579 264.907 C 360.131 314.726 335.604 359.679 300.001 385.077 C 263.768 409.553 212.865 416.914 166.923 396.58 C 153.054 390.072 139.976 380.924 129.365 370.567 L 128.689 369.903 C 128.345 368.361 127.989 366.88 127.646 365.524 C 128.335 363.436 129.161 361.461 130.29 359.979 C 133.819 355.348 139.246 351.158 144.632 348.789 C 146.449 348.785 148.147 348.872 149.544 349.209 C 150.321 349.397 151.012 349.699 151.653 350.056 C 159.683 357.747 168.76 363.961 179.864 369 C 213.928 385.471 252.018 382.084 282.677 359.999 C 316.498 337.559 329.784 302.776 326.146 267.434 C 323.537 232.009 304.204 200.086 266.952 183.796 C 232.888 167.324 194.812 170.703 164.151 192.788 C 140.548 208.588 127.293 230.121 122.44 254.231 C 120.55 256.28 117.664 259.284 114.888 261.601 C 109.806 261.81 102.453 261.825 97.172 260.506 C 95.619 257.662 94.08 253.72 92.578 249.606 C 99.967 215.901 120.535 186.409 146.815 167.72 C 183.049 143.244 233.984 135.897 279.928 156.233 C 321.933 176.385 351.836 218.86 356.579 264.907 Z" style="paint-order: stroke markers; fill-rule: evenodd; fill: rgb(255, 115, 0);"/>
  <path d="M 405.098 111.279 L 405.378 111.442 L 405.845 111.715 L 405.905 111.715 C 422.26 120.454 443.532 121.452 462.1 111.142 C 479.364 100.84 490.547 81.652 490.765 61.527 C 490.494 39.822 478.406 21.572 462.141 11.923 C 445.641 2.66 423.829 1.372 404.864 11.899 C 387.599 22.201 376.418 41.388 376.2 61.513 C 376.47 83.218 388.558 101.468 404.823 111.117 Z M 400.468 61.508 C 400.205 48.459 406.96 38.447 417.002 32.915 C 426.827 26.983 438.931 26.116 450.022 32.949 C 460.658 38.745 466.704 49.392 466.495 61.533 C 466.761 74.582 460.004 84.593 449.962 90.126 C 440.136 96.058 428.032 96.925 416.943 90.091 C 406.306 84.296 400.259 73.648 400.468 61.508 Z" style="paint-order: stroke markers; fill-rule: evenodd; fill: rgb(255, 115, 0);" transform="matrix(-0.422596, 0.906318, -0.906318, -0.422596, 672.433716, -305.344727)"/>
</svg>